<?xml version="1.0"?>
<svg version="1.1" xmlns="http://www.w3.org/2000/svg" width="200px" height="80px" style=""><path fill="#cf1717" d="M9.19140625,47.71484375q0-3.359375,0.185546875-6.640625t0.458984375-6.640625q0.078125-0.87890625,0.09765625-1.69921875t0.185546875-1.435546875t0.5859375-0.9765625t1.298828125-0.361328125q0.56640625,0,1.181640625,0.1953125t0.615234375,0.91796875q0,2.71484375-0.224609375,5.341796875t-0.302734375,5.224609375q2.12890625-2.40234375,4.55078125-4.482421875t5.13671875-4.111328125q0.390625-0.2734375,0.99609375-0.29296875q0.1953125,0,0.341796875,0.01953125t0.302734375,0.05859375q0.1953125,0.078125,0.400390625,0.185546875t0.205078125,0.302734375q0,0.15625-0.17578125,0.2734375q-2.03125,1.640625-4.013671875,3.33984375t-3.779296875,3.6328125q0.234375,0.44921875,0.400390625,0.83984375t0.361328125,0.83984375q1.640625,3.88671875,2.802734375,7.958984375t2.470703125,8.076171875q0.1171875,0.44921875,0.341796875,0.927734375t0.419921875,0.95703125t0.341796875,0.8984375t0.146484375,0.693359375q0,0.3515625-0.224609375,0.556640625t-0.517578125,0.322265625t-0.634765625,0.15625t-0.634765625,0.0390625q-0.68359375,0-1.220703125-0.1953125t-0.849609375-0.87890625q-1.4453125-4.609375-2.783203125-9.21875t-2.705078125-9.296875q-0.44921875,0.44921875-0.8984375,1.123046875t-0.8203125,1.240234375q0,2.9296875,0.13671875,5.8203125t0.46875,5.8203125q0.078125,0.83984375,0.263671875,1.6796875t0.185546875,1.71875q0,0.64453125-0.6640625,0.8984375t-1.46484375,0.25390625q-0.87890625,0-1.318359375-0.17578125t-0.625-0.458984375t-0.224609375-0.625t-0.1171875-0.654296875q-0.44921875-3.0859375-0.56640625-6.103515625t-0.1171875-6.064453125z M29.2044921875,52.71484375q0-1.328125,0.361328125-2.55859375t1.083984375-2.197265625t1.806640625-1.54296875t2.509765625-0.576171875q0.87890625,0,1.943359375,0.263671875t2.001953125,0.78125t1.5625,1.318359375t0.625,1.8359375q0,0.48828125-0.166015625,0.7421875t-0.673828125,0.25390625l-0.21484375-0.0390625q0.56640625,1.5234375,0.9765625,3.125t0.80078125,3.203125q0.15625,0.3125,0.234375,0.556640625t0.078125,0.478515625q0,0.3125-0.17578125,0.517578125t-0.458984375,0.302734375t-0.5859375,0.13671875t-0.537109375,0.0390625q-0.83984375,0-1.259765625-0.29296875t-0.60546875-0.80078125t-0.224609375-1.142578125t-0.15625-1.279296875q-0.234375,0.76171875-0.615234375,1.484375t-0.8984375,1.298828125t-1.220703125,0.91796875t-1.58203125,0.341796875q-1.2890625,0-2.16796875-0.7421875t-1.416015625-1.826171875t-0.78125-2.314453125t-0.244140625-2.28515625z M31.9779296875,52.44140625q0,0.72265625,0.09765625,1.5234375t0.322265625,1.58203125t0.576171875,1.474609375t0.87890625,1.220703125q0.95703125-1.03515625,1.416015625-2.51953125t0.8203125-2.861328125t0.8203125-2.36328125t1.416015625-0.986328125q0.60546875,0,1.015625,0.21484375q-0.1953125-0.48828125-0.64453125-0.947265625t-1.005859375-0.83984375t-1.15234375-0.625t-1.123046875-0.244140625q-0.15625,0-0.361328125,0.048828125t-0.322265625,0.009765625q-0.80078125,0.234375-1.318359375,0.810546875t-0.83984375,1.357421875t-0.458984375,1.6015625t-0.13671875,1.54296875z M46.131640625,47.24609375q0-0.80078125,0.283203125-1.34765625t1.201171875-0.546875q0.3515625,0,0.87890625,0.107421875t0.60546875,0.537109375q0.1953125,1.15234375,0.21484375,2.5t0.13671875,2.5390625q0.44921875-0.87890625,1.15234375-1.89453125t1.6015625-1.875t1.953125-1.42578125t2.1484375-0.56640625q0.078125,0,0.29296875,0.05859375t0.400390625,0.166015625t0.224609375,0.244140625t-0.21484375,0.25390625q-0.078125,0.234375-0.33203125,0.283203125t-0.44921875,0.048828125q-0.1171875,0-0.37109375-0.09765625q-1.4453125,0.76171875-2.4609375,2.0703125t-1.66015625,2.900390625t-0.9375,3.359375t-0.29296875,3.447265625q0,0.83984375-0.380859375,1.015625t-1.220703125,0.17578125q-0.44921875,0-0.947265625-0.09765625t-0.693359375-0.625q-0.3515625-1.11328125-0.576171875-2.55859375t-0.341796875-2.978515625t-0.166015625-3.017578125t-0.048828125-2.67578125z M60.0119140625,52.24609375q0-1.796875,0.419921875-3.525390625t0.712890625-3.447265625q0.078125-0.44921875,0.615234375-0.556640625t0.908203125-0.107421875q0.64453125,0,1.03515625,0.1953125q0.15625,0.078125,0.29296875,0.17578125t0.13671875,0.25390625q0,1.6796875-0.400390625,3.28125t-0.400390625,3.3984375q0,0.60546875,0.087890625,1.142578125t0.166015625,1.064453125l0.1171875,0.56640625q0,0.15625,0.01953125,0.2734375t0.05859375,0.2734375q0,0.3515625-0.498046875,0.478515625t-0.869140625,0.126953125q-0.56640625,0-1.044921875-0.224609375t-0.751953125-0.771484375l-0.2734375-0.56640625q-0.234375-0.44921875-0.234375-1.005859375t-0.09765625-1.025390625z M61.2619140625,40.48828125l0-0.37109375q0-0.91796875,0.458984375-1.640625t1.376953125-0.72265625q0.1171875,0,0.224609375,0.01953125t0.224609375,0.01953125q0.234375,0.0390625,0.615234375,0.185546875t0.380859375,0.458984375l0,0.0390625q-0.078125,0.15625-0.09765625,0.322265625t-0.09765625,0.283203125l0.0390625-0.0390625q-0.234375,0.60546875-0.380859375,0.9765625t-0.322265625,0.595703125t-0.439453125,0.322265625t-0.751953125,0.09765625q-0.078125,0-0.2734375-0.01953125t-0.419921875-0.078125t-0.380859375-0.15625t-0.15625-0.29296875z M68.56015625,52.8125l0-0.56640625q0-0.703125,0.0390625-1.328125q0.0390625-0.87890625,0.0390625-1.4453125q0-0.3125,0.0390625-0.712890625t0.1953125-0.634765625q0.1953125-0.1953125,0.458984375-0.400390625t0.576171875-0.205078125q0.99609375,0,1.5625,0.224609375t0.60546875,0.927734375l0.078125,0.60546875q0.3515625-0.83984375,0.9375-2.080078125t1.357421875-2.36328125t1.73828125-1.9140625t2.041015625-0.791015625q0.99609375,0,1.640625,0.9375t1.025390625,2.392578125t0.537109375,3.2421875t0.21484375,3.505859375t0.078125,3.134765625t0.13671875,2.138671875q0.078125,0.60546875,0.263671875,1.279296875t0.185546875,1.240234375q0,0.15625-0.224609375,0.302734375t-0.478515625,0.244140625t-0.517578125,0.15625t-0.380859375,0.05859375q-0.76171875,0-1.083984375-1.142578125t-0.400390625-2.861328125t-0.078125-3.720703125t-0.13671875-3.720703125t-0.556640625-2.861328125t-1.337890625-1.181640625q-0.83984375,0-1.73828125,1.083984375t-1.54296875,2.880859375q-0.625,1.796875-0.859375,4.08203125q-0.078125,0.72265625-0.078125,1.4453125q0,1.58203125,0.33203125,3.1640625q0.0390625,0.2734375-0.224609375,0.41015625t-0.654296875,0.21484375t-0.791015625,0.09765625t-0.615234375,0.01953125q-0.76171875,0-1.220703125-0.537109375t-0.712890625-1.376953125t-0.341796875-1.884765625t-0.107421875-2.060546875z M93.918359375,32.71484375q0-0.234375,0.185546875-0.37109375t0.439453125-0.205078125t0.517578125-0.087890625t0.458984375-0.05859375q0.87890625-0.1171875,2.28515625-0.29296875t2.880859375-0.341796875t2.861328125-0.283203125t2.2265625-0.1171875q0.390625,0,0.9765625,0.13671875t0.625,0.6640625l-0.21484375,0.37109375q-1.328125,3.0078125-2.724609375,6.181640625t-2.63671875,6.455078125t-2.197265625,6.62109375t-1.30859375,6.69921875q0.3125,0.0390625,1.15234375,0.078125t1.904296875,0.09765625t2.197265625,0.17578125t2.080078125,0.263671875t1.54296875,0.341796875t0.595703125,0.46875q0,0.3125-0.21484375,0.498046875t-0.537109375,0.283203125t-0.6640625,0.146484375t-0.576171875,0.048828125q-0.390625,0-1.435546875-0.01953125t-2.34375-0.087890625t-2.705078125-0.185546875t-2.568359375-0.29296875t-1.9140625-0.419921875t-0.751953125-0.556640625q0-1.07421875,0.478515625-3.18359375t1.259765625-4.7265625t1.73828125-5.458984375t1.93359375-5.380859375t1.85546875-4.521484375t1.484375-2.900390625q-1.953125,0.1171875-3.876953125,0.341796875t-3.876953125,0.224609375q-0.2734375,0-0.703125-0.078125t-0.4296875-0.52734375z M111.7634765625,52.24609375q0-1.796875,0.419921875-3.525390625t0.712890625-3.447265625q0.078125-0.44921875,0.615234375-0.556640625t0.908203125-0.107421875q0.64453125,0,1.03515625,0.1953125q0.15625,0.078125,0.29296875,0.17578125t0.13671875,0.25390625q0,1.6796875-0.400390625,3.28125t-0.400390625,3.3984375q0,0.60546875,0.087890625,1.142578125t0.166015625,1.064453125l0.1171875,0.56640625q0,0.15625,0.01953125,0.2734375t0.05859375,0.2734375q0,0.3515625-0.498046875,0.478515625t-0.869140625,0.126953125q-0.56640625,0-1.044921875-0.224609375t-0.751953125-0.771484375l-0.2734375-0.56640625q-0.234375-0.44921875-0.234375-1.005859375t-0.09765625-1.025390625z M113.0134765625,40.48828125l0-0.37109375q0-0.91796875,0.458984375-1.640625t1.376953125-0.72265625q0.1171875,0,0.224609375,0.01953125t0.224609375,0.01953125q0.234375,0.0390625,0.615234375,0.185546875t0.380859375,0.458984375l0,0.0390625q-0.078125,0.15625-0.09765625,0.322265625t-0.09765625,0.283203125l0.0390625-0.0390625q-0.234375,0.60546875-0.380859375,0.9765625t-0.322265625,0.595703125t-0.439453125,0.322265625t-0.751953125,0.09765625q-0.078125,0-0.2734375-0.01953125t-0.419921875-0.078125t-0.380859375-0.15625t-0.15625-0.29296875z M120.2921875,52.03125q0-1.07421875,0.205078125-2.294921875t0.703125-2.236328125t1.376953125-1.6796875t2.24609375-0.6640625q0.91796875,0,1.77734375,0.302734375t1.62109375,0.830078125q0.234375-0.390625,0.7421875-0.478515625t0.8984375-0.087890625q0.15625,0,0.439453125,0.01953125t0.556640625,0.1171875t0.478515625,0.234375t0.244140625,0.390625q0.15625,1.3671875,0.21484375,2.724609375t0.17578125,2.705078125q0.1953125,2.51953125,0.60546875,4.98046875t0.41015625,4.98046875q0,1.19140625-0.107421875,2.578125t-0.56640625,2.568359375t-1.337890625,1.962890625t-2.44140625,0.78125q-1.40625,0-2.158203125-0.498046875t-1.357421875-1.669921875q0.0390625-0.390625,0.498046875-0.517578125t0.791015625-0.126953125q0.3125,0,0.634765625,0.05859375t0.517578125,0.1953125l0.48828125,0.3125q0.72265625-1.484375,0.87890625-3.2421875t0.15625-3.3984375q0-1.3671875-0.13671875-2.705078125t-0.2734375-2.685546875q-1.3671875,2.48046875-4.16015625,2.48046875q-1.2890625,0-2.099609375-0.546875t-1.25-1.38671875t-0.60546875-1.89453125t-0.166015625-2.109375z M122.69453125,52.20703125q0,0.48828125,0.0390625,1.259765625t0.205078125,1.513671875t0.478515625,1.279296875t0.87890625,0.537109375q1.07421875,0,1.69921875-0.83984375t0.986328125-2.001953125t0.576171875-2.40234375t0.546875-2.041015625q-0.0390625-0.2734375-0.0390625-0.537109375l0-0.537109375q-0.44921875-0.83984375-1.30859375-1.455078125t-1.77734375-0.830078125q-0.1171875-0.01953125-0.21484375-0.01953125q-0.546875,0-0.8984375,0.64453125q-0.44921875,0.78125-0.703125,1.865234375t-0.361328125,2.138671875t-0.107421875,1.42578125z M136.9849609375,52.03125q0-1.07421875,0.205078125-2.294921875t0.703125-2.236328125t1.376953125-1.6796875t2.24609375-0.6640625q0.91796875,0,1.77734375,0.302734375t1.62109375,0.830078125q0.234375-0.390625,0.7421875-0.478515625t0.8984375-0.087890625q0.15625,0,0.439453125,0.01953125t0.556640625,0.1171875t0.478515625,0.234375t0.244140625,0.390625q0.15625,1.3671875,0.21484375,2.724609375t0.17578125,2.705078125q0.1953125,2.51953125,0.60546875,4.98046875t0.41015625,4.98046875q0,1.19140625-0.107421875,2.578125t-0.56640625,2.568359375t-1.337890625,1.962890625t-2.44140625,0.78125q-1.40625,0-2.158203125-0.498046875t-1.357421875-1.669921875q0.0390625-0.390625,0.498046875-0.517578125t0.791015625-0.126953125q0.3125,0,0.634765625,0.05859375t0.517578125,0.1953125l0.48828125,0.3125q0.72265625-1.484375,0.87890625-3.2421875t0.15625-3.3984375q0-1.3671875-0.13671875-2.705078125t-0.2734375-2.685546875q-1.3671875,2.48046875-4.16015625,2.48046875q-1.2890625,0-2.099609375-0.546875t-1.25-1.38671875t-0.60546875-1.89453125t-0.166015625-2.109375z M139.3873046875,52.20703125q0,0.48828125,0.0390625,1.259765625t0.205078125,1.513671875t0.478515625,1.279296875t0.87890625,0.537109375q1.07421875,0,1.69921875-0.83984375t0.986328125-2.001953125t0.576171875-2.40234375t0.546875-2.041015625q-0.0390625-0.2734375-0.0390625-0.537109375l0-0.537109375q-0.44921875-0.83984375-1.30859375-1.455078125t-1.77734375-0.830078125q-0.1171875-0.01953125-0.21484375-0.01953125q-0.546875,0-0.8984375,0.64453125q-0.44921875,0.78125-0.703125,1.865234375t-0.361328125,2.138671875t-0.107421875,1.42578125z M153.677734375,48.359375q0-0.56640625,0.322265625-0.7421875t0.810546875-0.17578125q0.80078125,0,1.220703125,0.302734375t0.419921875,1.064453125q0,0.91796875,0.13671875,2.294921875t0.400390625,2.67578125t0.625,2.236328125t0.751953125,0.9375q0.72265625,0,1.279296875-1.11328125t0.9765625-2.734375t0.72265625-3.486328125t0.419921875-3.330078125q0.078125-0.80078125,0.380859375-1.162109375t1.103515625-0.361328125q0.91796875,0,1.337890625,0.76171875t0.537109375,1.875q0.09765625,0.95703125,0.09765625,1.9921875l0,0.33203125l0,0.78125q0,0.7421875,0.01953125,1.328125l0.56640625,11.97265625l0.078125,1.9921875q0.0390625,0.2734375,0.05859375,0.517578125t0.01953125,0.517578125q0,1.11328125-0.478515625,1.435546875t-1.552734375,0.322265625q-0.234375,0-0.595703125-0.0390625t-0.703125-0.15625t-0.5859375-0.322265625t-0.244140625-0.517578125l0.078125-0.1953125q0.09765625-1.171875,0.09765625-2.4609375l0-0.41015625q-0.01953125-1.5234375-0.09765625-3.0859375t-0.17578125-3.125t-0.09765625-3.0078125q-0.2734375,0.60546875-0.634765625,1.25t-0.83984375,1.162109375t-1.083984375,0.859375t-1.3671875,0.341796875q-1.11328125,0-1.8359375-0.5859375t-1.123046875-1.5234375t-0.576171875-2.099609375t-0.234375-2.32421875t-0.078125-2.216796875t-0.15625-1.77734375z"/><path fill="#" d=""/></svg>
